<svg width="112" height="112" viewBox="0 0 112 112" fill="none" xmlns="http://www.w3.org/2000/svg">
<g clip-path="url(#clip0_33_2)">
<path d="M56 0C25.0787 0 0 25.7079 0 57.4157C0 82.7839 16.044 104.305 38.2993 111.898C41.0947 112.43 42 110.65 42 109.138V98.4488C26.4227 101.922 23.1793 91.6737 23.1793 91.6737C20.6313 85.0374 16.9587 83.2719 16.9587 83.2719C11.8767 79.7073 17.346 79.7839 17.346 79.7839C22.9693 80.1858 25.928 85.7025 25.928 85.7025C30.9213 94.4775 39.0273 91.9417 42.224 90.4728C42.7233 86.7647 44.1747 84.2288 45.78 82.7982C33.3433 81.3389 20.2673 76.4155 20.2673 54.4205C20.2673 48.1478 22.456 43.0283 26.0353 39.0092C25.4567 37.5594 23.5387 31.7174 26.5813 23.8132C26.5813 23.8132 31.2853 22.2725 41.986 29.6983C46.452 28.4256 51.24 27.7892 56 27.7653C60.76 27.7892 65.5527 28.4256 70.028 29.6983C80.7193 22.2725 85.414 23.8132 85.414 23.8132C88.4613 31.7222 86.5433 37.5642 85.9647 39.0092C89.558 43.0283 91.728 48.1526 91.728 54.4205C91.728 76.4729 78.6287 81.3293 66.1593 82.7504C68.166 84.5303 70 88.0231 70 93.3819V109.138C70 110.664 70.896 112.458 73.738 111.894C95.9747 104.291 112 82.7743 112 57.4157C112 25.7079 86.926 0 56 0Z" fill="black"/>
</g>
<defs>
<clipPath id="clip0_33_2">
<rect width="112" height="112" fill="white"/>
</clipPath>
</defs>
</svg>
