<svg width="255" height="210" viewBox="0 0 255 210" fill="none" xmlns="http://www.w3.org/2000/svg">
<path d="M59.4721 0.0407893C60.4486 0.0529548 61.4252 0.0651203 62.4313 0.0776545C69.8407 0.341678 75.0437 1.58461 80.5971 6.72829C81.2674 7.2697 81.9377 7.8111 82.6283 8.36891C87.3103 12.4752 89.2187 16.7268 90.5971 22.7283C90.7814 23.5107 90.9658 24.2932 91.1557 25.0994C91.6686 28.1542 91.7664 31.0684 91.7846 34.1658C91.7988 35.2576 91.813 36.3495 91.8276 37.4744C91.5168 41.8615 90.8822 45.4847 87.6596 48.6033C82.9832 50.3212 78.5164 50.4142 73.5971 49.7283C70.4096 47.8533 70.4096 47.8533 68.5971 45.7283C68.5971 45.0683 68.5971 44.4083 68.5971 43.7283C67.9783 43.5633 67.3596 43.3983 66.7221 43.2283C64.1513 41.4136 64.1272 40.6205 63.4643 37.6345C63.2978 36.9056 63.1314 36.1766 62.9599 35.4256C62.8402 34.8655 62.7204 34.3054 62.5971 33.7283C53.5184 57.575 48.1528 80.9509 44.0903 106.059C43.5971 108.728 43.5971 108.728 42.5971 111.728C42.5139 113.793 42.4897 115.861 42.4994 117.928C42.5027 119.136 42.5059 120.344 42.5092 121.59C42.5176 122.852 42.526 124.115 42.5346 125.416C42.5391 126.69 42.5436 127.964 42.5483 129.277C42.5601 132.428 42.5765 135.578 42.5971 138.728C49.9658 131.513 56.5077 123.871 62.3471 115.353C66.7096 109.135 69.1717 105.724 76.9096 104.166C82.0709 103.541 85.437 103.74 89.9135 106.392C91.9713 108.025 93.7752 109.839 95.5971 111.728C95.7672 110.624 95.9374 109.519 96.1127 108.381C96.7724 104.125 97.4512 99.8726 98.1352 95.6209C98.4451 93.6802 98.7504 91.7388 99.0512 89.7966C101.79 72.1746 104.898 54.2744 117.597 40.7283C123.617 36.5763 133.128 36.9719 140.113 38.1541C147.496 40 152.766 43.7658 157.191 49.9588C158.943 53.4091 159.814 56.9169 160.66 60.6658C161.771 65.445 162.964 70.0912 164.597 74.7283C164.972 73.5565 165.347 72.3848 165.734 71.1775C168.564 62.4502 171.498 53.962 175.597 45.7283C176.257 45.7283 176.917 45.7283 177.597 45.7283C177.703 44.5295 177.703 44.5295 177.812 43.3064C178.85 38.5757 180.882 34.7275 183.16 30.4783C183.61 29.6336 184.06 28.789 184.524 27.9187C190.117 17.6593 197.843 5.4439 209.597 1.72829C219.807 0.563731 227.859 2.74882 236.847 7.41579C242.353 12.0456 247.117 17.3486 247.774 24.71C248.11 36.3859 247.399 47.6588 245.785 59.2283C237.897 115.602 237.897 115.602 243.597 171.728C243.774 172.472 243.951 173.216 244.133 173.982C246.25 183.479 246.25 183.479 251.91 191.041C254.597 193.728 254.597 193.728 254.976 196.513C254.973 199.277 254.861 201.978 254.597 204.728C253.937 204.728 253.277 204.728 252.597 204.728C252.597 205.388 252.597 206.048 252.597 206.728C248.024 209.338 243.875 209.096 238.722 209.103C237.837 209.128 236.951 209.152 236.038 209.178C229.011 209.209 225.538 207.282 220.222 202.666C214.312 196.053 209.062 188.92 205.597 180.728C205.176 179.763 204.754 178.797 204.32 177.803C201.161 170.158 199.459 162.939 198.597 154.728C198.486 153.807 198.375 152.885 198.261 151.935C196.372 133.018 197.471 113.664 198.597 94.7283C194.204 109.936 189.877 125.151 185.857 140.462C185.588 141.477 185.319 142.491 185.042 143.537C184.811 144.422 184.579 145.307 184.34 146.218C183.576 148.799 182.635 151.247 181.597 153.728C180.937 153.728 180.277 153.728 179.597 153.728C179.267 154.718 178.937 155.708 178.597 156.728C176.253 157.855 174.019 158.818 171.597 159.728C170.802 160.069 170.006 160.409 169.187 160.76C163.764 162.788 158.267 163.601 152.695 161.779C150.157 160.567 147.849 159.415 145.597 157.728C145.267 156.738 144.937 155.748 144.597 154.728C143.937 154.419 143.277 154.11 142.597 153.791C140.597 152.728 140.597 152.728 139.847 150.603C139.765 149.985 139.682 149.366 139.597 148.728C138.937 148.728 138.277 148.728 137.597 148.728C134.558 140.854 132.356 132.978 130.597 124.728C130.267 124.728 129.937 124.728 129.597 124.728C128.84 130.116 128.465 135.363 128.456 140.806C128.438 142.312 128.419 143.817 128.398 145.322C128.369 147.661 128.347 150 128.347 152.34C128.343 154.621 128.309 156.9 128.269 159.181C128.276 159.879 128.283 160.577 128.29 161.296C128.198 164.993 127.887 166.44 125.223 169.087C124.356 169.628 123.49 170.17 122.597 170.728C121.71 171.326 120.823 171.925 119.91 172.541C115.195 174.231 111.391 174.181 106.597 172.728C101.033 169.355 98.3022 166.01 96.5971 159.728C96.2859 156.836 96.2262 153.956 96.183 151.049C96.1637 150.236 96.1443 149.423 96.1243 148.586C96.0649 146.008 96.0183 143.431 95.9721 140.853C95.9339 139.098 95.8948 137.343 95.8549 135.588C95.7592 131.301 95.6751 127.015 95.5971 122.728C95.2804 123.386 94.9637 124.044 94.6374 124.722C92.3071 129.487 89.9821 133.974 86.7846 138.228C86.0924 139.15 85.4001 140.072 84.6869 141.021C83.9973 141.915 83.3076 142.808 82.5971 143.728C81.9796 144.529 81.3622 145.329 80.726 146.154C75.3812 152.943 69.7567 159.5 64.0844 166.016C63.1229 167.123 62.165 168.233 61.2114 169.346C51.7765 180.353 43.1379 186.005 28.5971 187.728C22.7854 187.428 15.4245 186.093 10.8315 182.252C9.59709 180.728 9.59709 180.728 9.59709 178.728C8.93709 178.728 8.27709 178.728 7.59709 178.728C7.59709 178.068 7.59709 177.408 7.59709 176.728C6.60709 176.398 5.61709 176.068 4.59709 175.728C0.814411 170.002 -0.00842269 164.088 0.0306883 157.385C0.0224504 156.51 0.0142125 155.635 0.00572496 154.734C-0.00997463 151.898 0.00890918 149.064 0.0345946 146.228C0.0381899 145.256 0.0417851 144.283 0.0454894 143.281C0.177761 118.217 3.52732 93.8226 10.5971 69.7283C10.8087 68.9985 11.0202 68.2687 11.2382 67.5169C13.3425 60.333 15.6154 53.2383 18.5151 46.3299C19.3433 44.3384 20.13 42.3297 20.8979 40.3142C26.3925 25.9078 32.5333 10.1021 46.2602 1.77126C50.5558 -0.145882 54.8342 -0.0539744 59.4721 0.0407893Z" fill="black"/>
</svg>
